 <svg  version="1.0" xmlns="http://www.w3.org/2000/svg"  width="194.000000pt" height="116.000000pt" viewBox="0 0 194.000000 116.000000"  preserveAspectRatio="xMidYMid meet">  <g transform="translate(0.000000,116.000000) scale(0.05,-0.05)" fill="#14b8a6" stroke="none"> <path d="M2298 1770 l332 -330 -482 -480 -483 -480 493 0 492 0 480 480 480 480 -330 330 -330 330 -492 0 -493 0 333 -330z m182 250 c20 -11 92 -23 160 -29 138 -10 254 -42 302 -84 17 -15 36 -22 43 -16 6 7 18 1 26 -13 11 -17 7 -19 -13 -8 -15 9 -8 -3 16 -27 24 -24 54 -43 65 -43 12 0 21 -10 21 -21 0 -12 8 -16 18 -10 10 6 23 -3 30 -21 7 -17 23 -28 36 -23 13 4 60 -27 105 -69 44 -42 91 -76 103 -76 12 0 39 -20 60 -43 37 -43 37 -44 -2 -28 -22 8 -62 22 -90 31 -102 32 -1167 462 -1217 492 -63 36 269 24 337 -12z m780 -600 c0 -11 45 -20 100 -20 l100 0 -41 -41 c-35 -35 -1186 -613 -1499 -753 l-110 -49 70 60 c39 32 76 55 84 51 7 -5 19 10 26 32 7 22 20 36 28 31 15 -9 85 47 230 185 42 41 70 61 61 44 -14 -26 -12 -26 17 -3 19 16 35 20 35 10 1 -9 9 1 18 23 9 24 7 46 -7 56 -13 10 -5 12 18 5 43 -11 136 71 184 164 35 66 33 75 -9 44 -33 -25 -33 -24 -2 9 23 25 98 46 253 69 264 39 309 61 73 35 -165 -18 -229 -4 -229 50 0 10 135 18 300 18 187 0 300 -8 300 -20z m-580 -663 c0 -17 -14 -44 -31 -58 -37 -30 -189 -41 -189 -13 0 11 -16 32 -35 48 -24 19 -14 18 32 -5 37 -18 62 -23 55 -12 -15 24 85 107 110 92 10 -6 18 0 18 15 1 39 39 -26 40 -67z"/> <path d="M632 1360 c-262 -264 -472 -486 -469 -495 4 -8 152 -157 328 -330 l321 -315 492 0 493 0 -329 324 -330 324 486 486 486 486 -501 0 -502 0 -475 -480z m1276 344 c-32 -31 -63 -56 -68 -55 -11 1 -19 -5 -144 -110 -43 -36 -85 -56 -98 -47 -15 8 -19 6 -11 -8 16 -24 -65 -88 -91 -72 -9 6 -15 -1 -11 -16 3 -14 -11 -25 -31 -23 -26 2 -30 -4 -15 -22 15 -18 11 -34 -14 -57 -36 -32 -42 -34 -95 -34 -18 0 -30 -19 -30 -47 0 -26 -18 -63 -40 -83 -46 -42 -55 -28 -11 17 25 25 26 33 2 52 -21 17 -31 17 -42 -1 -10 -15 -7 -19 8 -10 26 16 28 9 11 -36 -7 -18 -22 -25 -35 -18 -13 8 -7 -9 12 -39 19 -29 27 -58 18 -63 -24 -15 -358 -72 -420 -72 -31 0 -44 -7 -32 -18 11 -11 67 -11 139 1 78 12 122 12 126 -1 4 -11 18 -15 33 -10 14 6 31 -4 38 -21 10 -27 -23 -31 -268 -31 -173 0 -279 8 -279 20 0 11 -20 20 -45 20 -37 -1 -40 -4 -15 -22 25 -18 24 -20 -7 -10 -20 7 -67 12 -105 12 -169 0 -71 62 697 437 745 365 857 419 873 422 4 0 -19 -24 -50 -55z m-623 -80 c13 -51 -38 -95 -76 -63 -23 19 -29 18 -29 -2 0 -14 -6 -20 -13 -13 -6 7 -38 -1 -70 -17 -61 -32 -74 -23 -29 21 15 16 33 23 40 16 6 -7 12 5 12 26 1 32 4 33 20 8 16 -25 20 -23 21 10 1 22 7 29 12 15 8 -19 17 -17 40 5 39 40 60 38 72 -6z m-244 -1103 c335 -135 613 -249 619 -254 19 -20 -251 0 -350 25 -109 28 -252 47 -386 52 -56 2 -82 12 -76 27 5 13 -31 43 -80 68 -48 24 -88 54 -88 68 0 22 -121 106 -242 169 -29 14 -79 53 -110 86 l-57 59 80 -28 c45 -16 355 -138 690 -272z"/> </g> </svg> 